<?xml version="1.0" encoding="UTF-8"?>
<svg width="30px" height="30px" viewBox="0 0 30 30" version="1.1" xmlns="http://www.w3.org/2000/svg" xmlns:xlink="http://www.w3.org/1999/xlink">
    <!-- Generator: Sketch 42 (36781) - http://www.bohemiancoding.com/sketch -->
    <title>Shape</title>
    <desc>Created with Sketch.</desc>
    <defs></defs>
    <g id="Welcome" stroke="none" stroke-width="1" fill="none" fill-rule="evenodd">
        <g id="Mouse-Click-on-Search" transform="translate(-153.000000, -133.000000)" fill="#0094FF">
            <g id="Group-3" transform="translate(138.000000, 123.000000)">
                <g id="Magnifying-Glass" transform="translate(15.000000, 10.000000)">
                    <g id="Layer_1">
                        <path d="M29.4782609,27.0434783 L20.4347826,18 C21.826087,16.173913 22.6086957,13.826087 22.6086957,11.3043478 C22.6086957,5.04347826 17.5652174,0 11.3043478,0 C5.04347826,0 0,5.04347826 0,11.3043478 C0,17.5652174 5.04347826,22.6086957 11.3043478,22.6086957 C13.826087,22.6086957 16.0869565,21.826087 18,20.4347826 L27.0434783,29.4782609 C27.3913043,29.826087 27.826087,30 28.2608696,30 C28.6956522,30 29.1304348,29.826087 29.4782609,29.4782609 C30.173913,28.7826087 30.173913,27.7391304 29.4782609,27.0434783 Z M11.3043478,19.1304348 C6.95652174,19.1304348 3.47826087,15.6521739 3.47826087,11.3043478 C3.47826087,6.95652174 6.95652174,3.47826087 11.3043478,3.47826087 C15.6521739,3.47826087 19.1304348,6.95652174 19.1304348,11.3043478 C19.1304348,15.6521739 15.6521739,19.1304348 11.3043478,19.1304348 Z" id="Shape"></path>
                    </g>
                </g>
            </g>
        </g>
    </g>
</svg>